<svg xmlns="http://www.w3.org/2000/svg" width="430.117" height="430.117"><rect width="100%" height="100%" fill="none"/><g class="currentLayer"><title>Layer 1</title><path d="M380.726 198.639c24.157-1.993 40.543-12.975 46.85-27.876-8.715 5.353-35.765 11.189-50.704 5.631-.732-3.51-1.55-6.844-2.353-9.854-11.383-41.798-50.357-75.472-91.194-71.404a173.448 173.448 0 0 1 9.996-3.691c4.495-1.61 30.868-5.901 26.715-15.21-3.5-8.188-35.722 6.188-41.789 8.067 8.01-3.012 21.254-8.193 22.673-17.396-12.27 1.683-24.315 7.484-33.622 15.919 3.36-3.617 5.91-8.025 6.45-12.769-32.726 20.907-51.843 63.057-67.314 103.944-12.148-11.773-22.915-21.044-32.574-26.192-27.097-14.531-59.496-29.692-110.355-48.572-1.56 16.827 8.322 39.201 36.8 54.08-6.17-.826-17.453 1.017-26.477 3.178 3.675 19.277 15.677 35.159 48.17 42.839-14.85.98-22.524 4.359-29.479 11.642 6.763 13.407 23.266 29.186 52.953 25.947-33.006 14.226-13.458 40.571 13.4 36.642-45.817 47.323-118.05 43.845-159.53 4.264 108.3 147.572 343.716 87.274 378.8-54.866 26.284.224 41.736-9.105 51.317-19.39-15.144 2.57-37.094-.086-48.733-4.933z" fill="#fff" class="selected"/></g></svg>